PathFileType	4	(X/Y/Z)	C:/Users/beibeiliu/ov580/test_trc/User3\sequence.11_training_dense_right.trc
DataRate	CameraRate	NumFrames	NumMarkers	Units	OrigDataRate	OrigDataStartFrame	OrigNumFrames
120	120	16	19	mm	120	55	137
Frame#	Time	ThumbCMC			ThumbMCP			ThumbIP			ThumbTip			IndexMCP			IndexPIP			IndexTip			MiddleMCP			MiddlePIP			MiddleTip			RingMCP			RingPIP			RingTip			PinkyMCP			PinkyPIP			PinkyTip			BackHand1			BackHand2			BackHand3	
		X0	Y0	Z0	X1	Y1	Z1	X2	Y2	Z2	X3	Y3	Z3	X4	Y4	Z4	X5	Y5	Z5	X6	Y6	Z6	X7	Y7	Z7	X8	Y8	Z8	X9	Y9	Z9	X10	Y10	Z10	X11	Y11	Z11	X12	Y12	Z12	X13	Y13	Z13	X14	Y14	Z14	X15	Y15	Z15	X16	Y16	Z16	X17	Y17	Z17	X18	Y18	Z18	
54	0.45	58.6374	-67.9901	-4.54564	47.9099	-75.771	-35.6738	45.5861	-78.1777	-68.0443	49.0297	-83.4926	-88.6176	74.2027	-23.2458	-69.1754	66.693	-22.1521	-96.3677	63.6835	-26.6226	-118.058	87.8954	-37.7972	-77.7253	76.6916	-59.8259	-101.618	65.3875	-90.4477	-102.372	110.219	-35.5524	-71.1411	112.253	-35.1565	-95.4299	105.466	-39.6955	-121.41	134.286	-49.2846	-53.331	143.885	-42.324	-71.3484	155.366	-33.356	-92.1465	115.032	-44.3034	-15.7955	119.069	-57.6117	13.1485	85.6853	-37.8422	0.391096	
55	0.458333	58.8957	-67.5522	-5.42063	48.62	-73.8838	-38.5327	43.8731	-79.5852	-65.528	51.794	-83.0456	-90.9652	71.35	-23.9883	-67.8562	67.9998	-24.1708	-94.8392	63.5997	-27.7532	-117.471	87.9306	-38.766	-77.0219	76.3926	-58.2977	-100.262	66.1554	-95.155	-102.644	113.214	-38.2341	-68.6792	106.017	-34.5838	-97.7019	107.177	-41.6679	-124.052	131.807	-51.8039	-51.626	145.256	-44.279	-71.1497	151.151	-33.786	-89.2049	116.737	-43.9793	-15.812	117.83	-58.3925	13.1346	82.9681	-38.6774	0.751135	
56	0.466667	58.573	-64.9793	-5.14964	47.3525	-73.5983	-38.1665	45.7781	-76.3911	-66.7224	50.3353	-81.5017	-90.1401	74.1007	-23.6834	-68.4262	66.2463	-22.6609	-91.8736	62.0923	-27.2877	-119.588	88.3357	-37.4735	-76.1392	78.9871	-56.0378	-99.1074	65.3454	-90.8296	-103.076	110.032	-36.6207	-67.698	111.543	-35.3791	-96.726	107.97	-42.4186	-122.158	130.628	-49.7366	-52.1377	145.194	-44.3557	-69.5209	155.025	-37.4719	-90.3221	117.719	-45.7227	-13.9611	118.387	-55.5995	13.0444	86.9877	-38.587	0.297515	
57	0.475	58.2142	-64.3667	-3.1592	47.078	-70.8426	-38.9588	44.1194	-75.2307	-69.6907	51.1305	-80.364	-86.5986	72.6018	-21.7571	-65.2441	68.8267	-21.6557	-93.0549	64.3194	-28.4436	-119.286	90.9704	-37.5498	-75.7202	77.2694	-56.4382	-100.455	67.4883	-88.9173	-103.735	114.27	-37.0394	-67.1136	111.868	-34.1658	-94.0256	104.162	-39.7959	-121.802	136.07	-49.2061	-51.3211	142.237	-41.5163	-68.2978	155.112	-33.0604	-90.9079	115.502	-42.9782	-12.421	119.776	-54.0302	11.2286	88.6131	-37.6099	1.46964	
58	0.483333	59.7211	-62.1682	-3.75486	47.2174	-71.8338	-34.2101	42.2511	-75.1465	-63.6426	52.0853	-79.2076	-87.1543	74.9996	-21.9255	-63.6582	66.1625	-19.8247	-92.6594	62.452	-26.1871	-116.167	91.3553	-35.1843	-72.2839	80.6397	-56.4406	-99.7347	64.09	-89.6218	-102.454	110.846	-33.5671	-65.3929	113.377	-34.557	-94.5582	107.016	-38.8828	-118.672	135.723	-49.1955	-49.0211	145.259	-41.3407	-67.3106	156.739	-33.2268	-86.2838	118.582	-44.9974	-10.9009	120.5	-55.3109	17.5206	88.6069	-37.1141	5.23617	
59	0.491667	61.2794	-61.0847	-1.71762	45.6954	-69.0531	-33.5865	49.3171	-71.69	-63.8832	52.002	-77.2662	-84.8059	72.7985	-18.1822	-62.0481	69.9446	-18.3408	-89.533	67.7486	-24.7785	-115.914	90.7989	-33.9607	-74.4167	79.8773	-53.0657	-98.1002	67.7897	-84.7966	-101.174	115.181	-32.0266	-65.5299	114.938	-31.0921	-92.6917	110.836	-37.7043	-117.975	136.13	-48.5923	-46.3936	146.936	-41.3425	-64.784	153.789	-33.3025	-84.5323	117.86	-40.1475	-13.685	120.834	-52.3589	18.3059	90.3483	-34.8718	7.12157	
60	0.5	58.0445	-59.1285	0.535465	51.4375	-65.5971	-32.6428	46.6483	-68.8722	-62.7739	50.4192	-73.7406	-87.329	76.7512	-14.2721	-63.9292	68.6946	-14.3637	-92.492	64.471	-19.6062	-117.523	90.5723	-28.3021	-70.0767	77.7721	-46.6382	-95.2782	69.6938	-86.9018	-99.1494	116.05	-28.2317	-67.6266	114.533	-28.338	-91.2397	110.748	-34.1398	-119.089	137.465	-46.1034	-46.2513	144.041	-34.3516	-67.4532	157.462	-30.9126	-83.4804	120.48	-37.132	-11.0539	121.777	-48.7181	17.6226	90.2638	-30.051	4.66216	
61	0.508333	59.489	-54.7181	-2.88428	46.4339	-64.4399	-32.613	45.0704	-66.5487	-64.7102	53.8837	-69.8087	-85.0596	74.7798	-11.5322	-59.1592	72.4909	-11.4069	-91.2519	64.1769	-15.902	-113.408	94.3765	-27.0387	-69.6691	77.9463	-44.9236	-96.4959	67.0786	-79.7501	-97.7985	112.687	-24.8518	-64.7033	113.035	-22.9152	-88.4844	111.205	-28.9265	-116.691	135.317	-38.3383	-47.9736	145.827	-33.543	-63.4896	156.229	-22.0447	-87.0709	119.751	-35.1465	-12.3513	121.363	-46.0937	16.5493	86.708	-27.7536	6.06914	
62	0.516667	57.6463	-53.2134	-1.53567	48.6939	-62.0539	-33.4602	46.9973	-63.1977	-67.095	51.7177	-67.5069	-87.358	77.1476	-11.184	-59.5018	73.0482	-9.89453	-87.2186	63.7041	-13.9792	-114.944	92.3612	-24.8572	-74.8174	78.6102	-42.471	-95.8457	69.285	-80.5502	-98.6759	115.768	-25.2606	-63.3599	110.776	-20.5819	-92.3679	109.469	-27.2825	-121.031	137.166	-40.1854	-45.6407	145.272	-29.195	-65.5992	153.366	-20.3284	-86.8527	118.019	-34.3497	-8.929	122.282	-46.029	19.0781	88.1181	-27.908	4.22753	
63	0.525	56.6137	-53.2077	-3.0469	48.5922	-61.1172	-34.7438	45.1888	-63.3689	-65.2963	52.0608	-67.5153	-90.3088	77.1046	-11.3076	-60.4092	66.8549	-7.28699	-89.8097	66.6986	-15.7587	-115.751	92.6347	-25.9391	-71.514	80.7228	-41.7678	-94.4167	69.8083	-81.8492	-100.06	115.578	-25.765	-62.5708	114.013	-23.0542	-90.116	110.316	-28.2246	-116.495	135.973	-40.1316	-45.5489	141.975	-30.3247	-62.6588	154.615	-21.4077	-82.974	118.504	-31.585	-10.8271	119.433	-46.4427	19.6122	85.0264	-27.6092	4.78015	
64	0.533333	57.7749	-56.2777	2.25881	46.8664	-60.6635	-36.1309	44.1632	-65.2605	-62.9708	53.5963	-66.8676	-88.3703	72.5975	-9.54307	-58.0398	66.4263	-8.31185	-90.9257	65.517	-15.2115	-115.227	88.2528	-24.3517	-70.6612	81.2932	-43.923	-94.7766	66.6978	-77.7416	-99.1634	114.009	-24.7355	-62.6204	114.365	-22.2378	-93.5469	108.733	-26.3437	-114.914	134.001	-38.2563	-46.0581	144.658	-29.0929	-64.3238	156.814	-22.4646	-82.0258	119.069	-32.9231	-11.2928	120.228	-45.6797	19.0785	87.0229	-29.4755	7.02303	
65	0.541667	57.164	-55.405	-0.614617	50.9586	-62	-34.3223	46.5541	-64.1809	-63.6476	54.3031	-68.1054	-86.3552	74.371	-9.98987	-58.8302	72.158	-10.0373	-90.6144	67.1553	-14.1064	-113.064	92.9944	-24.7807	-74.7937	82.1585	-42.5182	-95.2733	68.073	-75.5914	-98.7763	111.957	-22.2747	-65.0026	110.901	-20.1764	-90.7795	106.657	-24.9792	-118.211	134.982	-36.0753	-47.7824	147.433	-28.2817	-66.9165	154.56	-21.1522	-83.3964	118.806	-33.5885	-8.85185	118.031	-46.5142	19.2911	89.5188	-26.5021	4.9287	
66	0.55	58.0711	-56.5445	-3.46629	52.1663	-64.3267	-35.7946	49.1297	-64.6991	-69.0459	58.5376	-68.3192	-89.3664	77.0189	-10.9593	-64.3008	70.0501	-7.77455	-89.4203	66.4404	-14.3478	-119.077	93.6802	-23.8859	-72.5208	83.835	-43.0775	-97.9879	73.7985	-81.0781	-99.4607	116.025	-20.886	-68.2122	114.735	-19.3721	-95.1596	109.939	-24.24	-118.437	137.142	-35.944	-47.6094	146.333	-28.5806	-63.4399	160.13	-21.0845	-85.6657	122.302	-31.5792	-13.3582	121.172	-46.0891	14.6772	88.9622	-29.9622	4.78287	
67	0.558333	58.145	-61.7762	-6.44197	53.9302	-69.3982	-40.1722	55.6586	-70.2812	-71.3926	59.7394	-75.1501	-92.8998	77.7232	-16.0273	-67.5375	70.6588	-14.5257	-95.5765	70.4417	-21.6954	-122.042	91.0844	-29.2288	-79.2175	86.9934	-48.2121	-101.248	79.1199	-84.2278	-102.417	118.04	-26.3347	-66.0076	116.034	-22.8863	-93.5022	113.401	-29.5764	-121.117	140.01	-40.7212	-49.1666	148.22	-27.5514	-69.6485	160.24	-22.8134	-86.3559	119.95	-36.2098	-13.2004	123.376	-48.9213	15.2568	86.3623	-31.5333	-0.451898	
68	0.566667	59.1862	-68.7294	-9.12823	55.1224	-78.2283	-40.019	51.0661	-83.5269	-73.6005	59.881	-87.4331	-95.1898	77.6758	-27.0215	-70.6736	74.8131	-26.4628	-99.1834	68.0582	-35.0409	-125.202	95.6797	-39.2918	-84.8603	88.8491	-60.1389	-104.142	80.8606	-97.0777	-102.427	119.388	-35.3752	-72.274	115.598	-34.4291	-98.3444	112.706	-42.3794	-128.216	138.508	-47.0008	-53.8854	145.639	-39.7829	-69.9395	158.455	-30.1638	-92.8183	117.507	-41.1623	-16.6215	121.476	-50.998	8.93314	90.1323	-37.8919	-5.28965	
69	0.575	62.2597	-71.1505	-13.1193	53.9559	-84.9182	-40.4502	52.2681	-92.825	-73.9544	58.6333	-101.465	-91.3614	73.8354	-37.1104	-80.102	70.77	-41.333	-105.814	66.9418	-52.2292	-129.226	93.1496	-50.8328	-86.2694	84.4641	-74.4682	-106.153	81.0143	-111.944	-98.7269	117.335	-48.0413	-75.0573	114.042	-50.2828	-101.609	116.323	-63.5691	-129.866	135.636	-55.626	-58.7201	148.883	-53.3375	-72.9172	158.741	-47.6788	-93.4414	119.918	-46.7682	-23.3322	116.487	-53.9793	8.94479	85.2576	-43.7565	-6.18506	
